<svg width="65" height="71" viewBox="0 0 65 71" fill="none" xmlns="http://www.w3.org/2000/svg">
<path d="M59.5346 54.3392C63.3005 49.1917 65.0547 41.9142 65.0547 32.1033V31.2481C64.8214 9.09284 55.487 0 33.0523 0C10.6176 0 0.945282 9.31068 0.945282 32.192C0.945282 55.0734 10.2394 64.2792 33.0523 64.2792H34.5329L32.3925 71C42.3625 69.1363 51.4072 63.9565 58.0781 56.2998C58.231 56.1465 58.3597 55.977 58.5046 55.8076C59.2127 54.9927 59.5748 54.4764 59.5748 54.4764L59.5346 54.3473V54.3392Z" fill="#007FF2"/>
<path d="M49.1055 14.1748C49.0411 14.1748 48.9767 14.1748 48.9123 14.1748H46.2971C45.2027 14.2859 44.3659 15.1981 44.3739 16.2849C44.3739 17.3716 45.2027 18.2839 46.2971 18.395H47.987V23.5036C47.995 27.6444 44.6073 30.9999 40.4068 31.0157C36.2063 31.0237 32.8025 27.684 32.7864 23.5432V18.4188H34.4763C35.6591 18.4188 36.6167 17.4748 36.6167 16.3087C36.6167 15.1426 35.6591 14.1986 34.4763 14.1986H31.8852C30.0424 14.1986 28.5457 15.6741 28.5457 17.4906V23.5036C28.5457 29.1437 32.6416 33.9746 38.2663 35.0059V39.694C38.2663 43.8349 34.8786 47.1904 30.6781 47.1983C27.3467 47.1983 24.3935 45.0644 23.4118 41.931C27.0329 40.6063 28.8837 36.632 27.5318 33.0544C26.1799 29.4768 22.1565 27.6603 18.5273 28.9929C14.9063 30.3177 13.0555 34.2919 14.4073 37.8695C15.1959 39.9558 16.9502 41.5344 19.1309 42.1214C20.2011 48.4913 26.3087 52.7987 32.7703 51.7437C38.6848 50.7759 42.9416 45.6038 42.676 39.694V35.0059C48.3008 33.9746 52.3806 29.1437 52.3966 23.5036V17.5144C52.4208 15.6979 50.9482 14.1986 49.1055 14.1748ZM21.038 38.6787H21.0138C19.1711 38.6787 17.6744 37.2032 17.6744 35.3866C17.6744 33.5701 19.1711 32.0946 21.0138 32.0946C22.8566 32.0946 24.3533 33.5701 24.3533 35.3866C24.3533 35.3866 24.3533 35.4025 24.3533 35.4104C24.3533 37.2191 22.8646 38.6787 21.038 38.6787Z" fill="white"/>
</svg>
